<svg width="15" height="16" viewBox="0 0 15 16" fill="none" xmlns="http://www.w3.org/2000/svg">
<path opacity="0.5" fill-rule="evenodd" clip-rule="evenodd" d="M1.28033 15.2803L4.06066 12.5H12.75C13.9926 12.5 15 11.4926 15 10.25V2.75C15 1.50736 13.9926 0.5 12.75 0.5H2.25C1.00736 0.5 0 1.50736 0 2.75V14.75C0 15.4182 0.807856 15.7528 1.28033 15.2803ZM3.75 11C3.55109 11 3.36032 11.079 3.21967 11.2197L1.5 12.9393V2.75C1.5 2.33579 1.83579 2 2.25 2H12.75C13.1642 2 13.5 2.33579 13.5 2.75V10.25C13.5 10.6642 13.1642 11 12.75 11H3.75Z" fill="#302B34"/>
</svg>
